<?xml version="1.0" encoding="UTF-8" standalone="no"?>
<!DOCTYPE svg PUBLIC "-//W3C//DTD SVG 1.1//EN" "http://www.w3.org/Graphics/SVG/1.1/DTD/svg11.dtd">
<svg width="100%" height="100%" viewBox="0 0 256 256" version="1.1" xmlns="http://www.w3.org/2000/svg" xmlns:xlink="http://www.w3.org/1999/xlink" xml:space="preserve" xmlns:serif="http://www.serif.com/" style="fill-rule:evenodd;clip-rule:evenodd;stroke-linejoin:round;stroke-miterlimit:2;">
    <g transform="matrix(1,0,0,1,-1457.48,-393)">
        <g id="Alert" transform="matrix(1,0,0,1,927.479,0)">
            <g>
                <g transform="matrix(0.965939,0,0,0.965939,41.8175,9.22303)">
                    <rect x="505.397" y="397.31" width="265.027" height="265.027" style="fill-opacity:0;"/>
                </g>
                <g>
                    <g transform="matrix(0.924716,0,0,0.924716,-808.118,38.8157)">
                        <path d="M1569.74,418.712C1572.99,413.089 1578.99,409.626 1585.48,409.626C1591.97,409.626 1597.97,413.089 1601.22,418.712L1702.59,594.299C1705.84,599.921 1705.84,606.849 1702.59,612.472C1699.35,618.094 1693.35,621.558 1686.85,621.558L1484.1,621.558C1477.61,621.558 1471.61,618.094 1468.37,612.472C1465.12,606.849 1465.12,599.921 1468.37,594.299L1569.74,418.712ZM1585.48,559C1571.13,559 1559.48,570.65 1559.48,585C1559.48,599.35 1571.13,611 1585.48,611C1599.83,611 1611.48,599.35 1611.48,585C1611.48,570.65 1599.83,559 1585.48,559ZM1605.48,529L1611.48,469C1611.48,454.65 1599.83,443 1585.48,443C1571.13,443 1559.48,454.65 1559.48,469L1565.48,529C1565.48,540.038 1574.44,549 1585.48,549C1596.52,549 1605.48,540.038 1605.48,529Z" style="fill:white;"/>
                    </g>
                    <g transform="matrix(0.924716,0,0,0.924716,-808.118,38.8157)">
                        <path d="M1554.76,410.061C1561.09,399.085 1572.81,392.323 1585.48,392.323C1598.15,392.323 1609.86,399.085 1616.2,410.061L1717.58,585.647C1723.91,596.624 1723.91,610.147 1717.58,621.123C1711.24,632.099 1699.53,638.861 1686.85,638.861L1484.1,638.861C1471.43,638.861 1459.72,632.099 1453.38,621.123C1447.04,610.147 1447.04,596.624 1453.38,585.647L1554.76,410.061ZM1569.74,418.712L1468.37,594.299C1465.12,599.921 1465.12,606.849 1468.37,612.472C1471.61,618.094 1477.61,621.558 1484.1,621.558L1686.85,621.558C1693.35,621.558 1699.35,618.094 1702.59,612.472C1705.84,606.849 1705.84,599.921 1702.59,594.299L1601.22,418.712C1597.97,413.089 1591.97,409.626 1585.48,409.626C1578.99,409.626 1572.99,413.089 1569.74,418.712Z" style="fill:white;fill-opacity:0.4;"/>
                    </g>
                    <g transform="matrix(1,0,0,1,-927.479,0)">
                        <path d="M1611.97,528.415C1611.97,528.416 1611.97,528.423 1611.97,528.425C1611.82,537.907 1606.67,546.186 1599.05,550.744C1609.96,555.858 1617.52,566.94 1617.52,579.775C1617.52,597.46 1603.16,611.817 1585.48,611.817C1567.79,611.817 1553.44,597.46 1553.44,579.775C1553.44,566.94 1561,555.858 1571.91,550.745C1564.28,546.185 1559.14,537.905 1558.99,528.425L1553.48,473.304C1553.45,473.039 1553.44,472.773 1553.44,472.508C1553.44,454.823 1567.79,440.465 1585.48,440.465C1603.16,440.465 1617.52,454.823 1617.52,472.508C1617.52,472.773 1617.51,473.039 1617.48,473.304L1611.97,528.415ZM1596.01,527.195C1596.01,527.195 1601.52,472.148 1601.52,472.141C1601.32,463.456 1594.21,456.465 1585.48,456.465C1576.75,456.465 1569.63,463.458 1569.44,472.148L1574.94,527.195C1574.97,527.459 1574.99,527.725 1574.99,527.991C1574.99,533.783 1579.69,538.485 1585.48,538.485C1591.27,538.485 1595.97,533.783 1595.97,527.991C1595.97,527.725 1595.99,527.459 1596.01,527.195ZM1585.48,563.732C1576.62,563.732 1569.44,570.921 1569.44,579.775C1569.44,588.629 1576.62,595.817 1585.48,595.817C1594.33,595.817 1601.52,588.629 1601.52,579.775C1601.52,570.921 1594.33,563.732 1585.48,563.732Z" style="fill:white;fill-opacity:0.4;"/>
                    </g>
                </g>
            </g>
        </g>
    </g>
</svg>
