<?xml version="1.0" encoding="UTF-8" standalone="no"?>
<!DOCTYPE svg PUBLIC "-//W3C//DTD SVG 1.1//EN" "http://www.w3.org/Graphics/SVG/1.1/DTD/svg11.dtd">
<svg width="100%" height="100%" viewBox="0 0 262 256" version="1.1" xmlns="http://www.w3.org/2000/svg" xmlns:xlink="http://www.w3.org/1999/xlink" xml:space="preserve" xmlns:serif="http://www.serif.com/" style="fill-rule:evenodd;clip-rule:evenodd;stroke-linejoin:round;stroke-miterlimit:2;">
    <g transform="matrix(1,0,0,1,-1767.72,-393)">
        <g id="Folder" transform="matrix(1,0,0,1,1237.72,0)">
            <g transform="matrix(0.965939,0,0,0.965939,41.8175,9.22303)">
                <rect x="505.397" y="397.31" width="265.027" height="265.027" style="fill-opacity:0;"/>
            </g>
            <path d="M620.96,436.807C620.96,443.435 626.333,448.807 632.96,448.807L730.148,448.807C736.775,448.807 742.148,454.18 742.148,460.807L742.148,607C742.148,613.627 736.775,619 730.148,619L542.076,619C535.449,619 530.076,613.627 530.076,607L530.076,435C530.076,431.817 531.34,428.765 533.591,426.515C535.841,424.264 538.893,423 542.076,423L608.96,423C612.143,423 615.195,424.264 617.445,426.515C619.696,428.765 620.96,431.817 620.96,435L620.96,436.807ZM548.267,449.838L548.267,592.162C548.267,594.351 549.137,596.45 550.684,597.998C552.232,599.546 554.332,600.416 556.521,600.416L715.703,600.416C717.892,600.416 719.991,599.546 721.539,597.998C723.087,596.45 723.957,594.351 723.957,592.162L723.957,475.646C723.957,473.457 723.087,471.357 721.539,469.809C719.991,468.261 717.892,467.392 715.703,467.392L632.528,467.392C619.596,467.392 608.571,458.945 604.482,447.104C603.321,443.798 600.199,441.585 596.695,441.584L556.521,441.584C554.332,441.584 552.232,442.454 550.684,444.002C549.137,445.55 548.267,447.649 548.267,449.838Z" style="fill:white;"/>
            <g transform="matrix(3.5989,0,0,1.01342,-5896.54,-20.4046)">
                <path d="M1856.4,524.363C1856.83,520.71 1856.71,516.544 1856.09,513.258C1855.47,509.973 1854.43,508 1853.32,508C1841.24,508 1810.75,508 1802.25,508C1800.9,508 1799.69,510.889 1799.17,515.319C1796.92,534.671 1790.77,587.554 1787.62,614.574C1787.2,618.227 1787.31,622.393 1787.93,625.679C1788.55,628.965 1789.59,630.937 1790.7,630.937C1802.79,630.938 1833.27,630.938 1841.77,630.938C1843.12,630.938 1844.34,628.048 1844.85,623.619C1847.1,604.267 1853.26,551.384 1856.4,524.363Z" style="fill:white;"/>
            </g>
        </g>
    </g>
</svg>
