<?xml version="1.0" encoding="UTF-8" standalone="no"?>
<!DOCTYPE svg PUBLIC "-//W3C//DTD SVG 1.1//EN" "http://www.w3.org/Graphics/SVG/1.1/DTD/svg11.dtd">
<svg width="100%" height="100%" viewBox="0 0 256 256" version="1.1" xmlns="http://www.w3.org/2000/svg" xmlns:xlink="http://www.w3.org/1999/xlink" xml:space="preserve" xmlns:serif="http://www.serif.com/" style="fill-rule:evenodd;clip-rule:evenodd;stroke-linejoin:round;stroke-miterlimit:2;">
    <g transform="matrix(1,0,0,1,-2077.96,-393)">
        <g id="Loading" transform="matrix(1,0,0,1,1547.96,0)">
            <g transform="matrix(0.965939,0,0,0.965939,41.8175,9.22303)">
                <rect x="505.397" y="397.31" width="265.027" height="265.027" style="fill-opacity:0;"/>
            </g>
            <g transform="matrix(0.866025,-0.5,0.5,0.866025,-172.345,398.801)">
                <path d="M571.966,579.378C560.642,562.731 554.022,542.633 554.022,521C554.022,463.613 600.613,417.022 658,417.022C680.583,417.022 701.495,424.237 718.553,436.486L683.419,461.147C675.609,457.823 667.018,455.983 658,455.983C622.116,455.983 592.983,485.116 592.983,521C592.983,534.306 596.989,546.684 603.859,556.992L571.966,579.378ZM632.581,580.853C640.391,584.177 648.982,586.017 658,586.017C693.884,586.017 723.017,556.884 723.017,521C723.017,507.694 719.011,495.316 712.141,485.008L744.034,462.622C755.358,479.269 761.978,499.367 761.978,521C761.978,578.387 715.387,624.978 658,624.978C635.417,624.978 614.505,617.763 597.447,605.514L632.581,580.853Z" style="fill:white;"/>
                <g transform="matrix(5.73257e-17,0.936199,-0.936199,5.73257e-17,1128.91,-1672.22)">
                    <path d="M2252.98,436L2300,503L2205.96,503L2252.98,436Z" style="fill:white;"/>
                </g>
                <g transform="matrix(5.73257e-17,-0.936199,0.936199,5.73257e-17,187.092,2714.22)">
                    <path d="M2252.98,436L2300,503L2205.96,503L2252.98,436Z" style="fill:white;"/>
                </g>
            </g>
        </g>
    </g>
</svg>
