<?xml version="1.0" encoding="UTF-8" standalone="no"?>
<!DOCTYPE svg PUBLIC "-//W3C//DTD SVG 1.1//EN" "http://www.w3.org/Graphics/SVG/1.1/DTD/svg11.dtd">
<svg width="100%" height="100%" viewBox="0 0 256 267" version="1.1" xmlns="http://www.w3.org/2000/svg" xmlns:xlink="http://www.w3.org/1999/xlink" xml:space="preserve" xmlns:serif="http://www.serif.com/" style="fill-rule:evenodd;clip-rule:evenodd;stroke-linejoin:round;stroke-miterlimit:2;">
    <g transform="matrix(1,0,0,1,-1147.24,-393)">
        <g id="Pin" transform="matrix(1,0,0,1,617.239,0)">
            <clipPath id="_clip1">
                <rect x="530" y="393.044" width="256" height="255.956"/>
            </clipPath>
            <g clip-path="url(#_clip1)">
                <g transform="matrix(0.965939,0,0,0.965939,41.8175,9.22303)">
                    <rect x="505.397" y="397.31" width="265.027" height="265.027" style="fill:white;fill-opacity:0;"/>
                </g>
                <g transform="matrix(1.13654,0.852619,0.920913,-1.22757,-1313.22,176.185)">
                    <path d="M1248.43,492.091C1248.61,490.903 1249.7,490.019 1251,490.019C1252.3,490.019 1253.39,490.903 1253.57,492.091C1258.32,523.677 1268,588 1268,588L1234,588C1234,588 1243.68,523.677 1248.43,492.091Z" style="fill:white;"/>
                </g>
                <g transform="matrix(1.0176,0.763026,-0.792573,1.057,-219.418,-971.695)">
                    <path d="M1210.78,433.663C1214.51,424.644 1231.11,417.837 1251,417.837C1270.89,417.837 1287.49,424.644 1291.22,433.663C1289.92,437.397 1288.86,441.503 1288.08,445.901C1286.36,455.503 1285.96,466.495 1287.17,478.046C1288.46,490.384 1291.42,501.718 1295.48,511.133C1296.85,514.325 1298.35,517.297 1299.96,520.013C1299.99,520.34 1300,520.669 1300,521C1300,533.97 1278.04,544.5 1251,544.5C1223.96,544.5 1202,533.97 1202,521C1202,520.669 1202.01,520.34 1202.04,520.013C1203.65,517.297 1205.15,514.325 1206.52,511.133C1210.58,501.718 1213.54,490.384 1214.83,478.046C1216.04,466.495 1215.64,455.503 1213.92,445.901C1213.14,441.503 1212.08,437.397 1210.78,433.663Z" style="fill:white;"/>
                </g>
            </g>
        </g>
    </g>
</svg>
