<?xml version="1.0" encoding="UTF-8" standalone="no"?>
<!DOCTYPE svg PUBLIC "-//W3C//DTD SVG 1.1//EN" "http://www.w3.org/Graphics/SVG/1.1/DTD/svg11.dtd">
<svg width="100%" height="100%" viewBox="0 0 256 256" version="1.1" xmlns="http://www.w3.org/2000/svg" xmlns:xlink="http://www.w3.org/1999/xlink" xml:space="preserve" xmlns:serif="http://www.serif.com/" style="fill-rule:evenodd;clip-rule:evenodd;stroke-linejoin:round;stroke-miterlimit:2;">
    <g transform="matrix(1,0,0,1,-530,-393)">
        <g>
            <g transform="matrix(0.965939,0,0,0.965939,41.8175,9.22303)">
                <rect x="505.397" y="397.31" width="265.027" height="265.027" style="fill:none;"/>
            </g>
            <path d="M770.518,565.602L770.242,574.725L770.242,585.507C770.242,661.809 545.482,661.809 545.482,585.507L545.482,497.593C539.952,490.405 534.792,482.941 530,475.2C536.451,464.326 544.099,454.374 552.946,445.343C560.871,449.029 568.428,453.36 575.616,458.336C582.988,451.517 591.097,445.619 599.944,440.643C598.654,431.243 597.916,421.844 597.732,412.444C608.606,407.284 619.941,403.413 631.737,400.833C636.528,408.758 640.767,416.96 644.454,425.438C653.485,424.148 662.515,424.148 671.546,425.438C675.233,416.96 679.472,408.758 684.263,400.833C696.059,403.413 707.394,407.284 718.268,412.444C718.084,421.844 717.346,431.243 716.056,440.643C724.903,445.619 733.012,451.517 740.384,458.336C747.572,453.36 755.129,449.029 763.054,445.343C771.901,454.374 779.549,464.326 786,475.2C781.208,482.941 776.048,490.405 770.518,497.593L770.518,565.602ZM588.774,566.524L632.175,605.921C636.522,609.867 642.326,611.809 648.173,611.274C654.02,610.739 659.375,607.776 662.934,603.107L739.809,502.244C746.821,493.044 745.045,479.88 735.844,472.868C726.643,465.855 713.48,467.632 706.467,476.833L643.439,559.528L616.95,535.484C608.384,527.708 595.117,528.35 587.342,536.916C579.566,545.482 580.208,558.749 588.774,566.524Z" style="fill:white;"/>
        </g>
    </g>
</svg>
